<svg width="24" height="24" viewBox="0 0 24 24" fill="none" xmlns="http://www.w3.org/2000/svg">
<g clip-path="url(#clip0_1338_18172)">
<path d="M16.5259 8.4C16.5259 6.96783 15.9569 5.59432 14.9442 4.58162C13.9315 3.56893 12.558 3 11.1259 3C9.69369 3 8.32018 3.56893 7.30749 4.58162C6.29479 5.59432 5.72586 6.96783 5.72586 8.4C5.72586 11.1812 5.02426 13.0854 4.24056 14.3449C3.57956 15.4073 3.24896 15.9385 3.26106 16.0867C3.27446 16.2508 3.30926 16.3133 3.44146 16.4114C3.56086 16.5 4.09926 16.5 5.17586 16.5H17.0759C18.1526 16.5 18.6909 16.5 18.8103 16.4114C18.9425 16.3133 18.9773 16.2508 18.9907 16.0867C19.0028 15.9385 18.6723 15.4073 18.0112 14.3449C17.2275 13.0854 16.5259 11.1812 16.5259 8.4Z" fill="white" fill-opacity="0.01"/>
<path d="M8.74466 20.1C9.37926 20.6601 10.2129 21 11.1259 21C12.0389 21 12.8725 20.6601 13.5072 20.1M16.5259 8.4C16.5259 6.96783 15.9569 5.59432 14.9442 4.58162C13.9315 3.56893 12.558 3 11.1259 3C9.69369 3 8.32018 3.56893 7.30749 4.58162C6.29479 5.59432 5.72586 6.96783 5.72586 8.4C5.72586 11.1812 5.02426 13.0854 4.24056 14.3449C3.57956 15.4073 3.24896 15.9385 3.26106 16.0867C3.27446 16.2508 3.30926 16.3133 3.44146 16.4114C3.56086 16.5 4.09926 16.5 5.17586 16.5H17.0759C18.1526 16.5 18.6909 16.5 18.8103 16.4114C18.9425 16.3133 18.9773 16.2508 18.9907 16.0867C19.0028 15.9385 18.6723 15.4073 18.0112 14.3449C17.2275 13.0854 16.5259 11.1812 16.5259 8.4Z" stroke="#6C737F" stroke-width="2" stroke-linecap="round" stroke-linejoin="round"/>
</g>
<defs>
<clipPath id="clip0_1338_18172">
<rect width="24" height="24" fill="white"/>
</clipPath>
</defs>
</svg>
